#
#
#

mtllib geoSphere.mtl


#
# GeoSphere001 메시
#
g GeoSphere001 메시

v 0.000000 5.000000 0.000000
v 1.803600 4.663400 0.000000
v 0.557400 4.663400 -1.715400
v 3.364400 3.698700 0.000000
v 2.397500 4.027100 -1.741900
v 1.039700 3.698700 -3.199700
v 4.472100 2.236100 0.000000
v 3.921800 2.584000 -1.715400
v 2.843300 2.584000 -3.199700
v 1.382000 2.236100 -4.253300
v -1.459200 4.663400 -1.060200
v -0.915800 4.027100 -2.818500
v -2.721900 3.698700 -1.977600
v -0.419500 2.584000 -4.259900
v -2.164500 2.584000 -3.692900
v -3.618000 2.236100 -2.628700
v -1.459200 4.663400 1.060200
v -2.963500 4.027100 0.000000
v -2.721900 3.698700 1.977600
v -4.181000 2.584000 -0.917400
v -4.181000 2.584000 0.917400
v -3.618000 2.236100 2.628703
v 0.557400 4.663400 1.715400
v -0.915800 4.027100 2.818500
v 1.039700 3.698700 3.199700
v -2.164500 2.584000 3.692900
v -0.419500 2.584000 4.259900
v 1.382000 2.236100 4.253300
v 2.397500 4.027100 1.741900
v 2.843300 2.584000 3.199700
v 3.921800 2.584000 1.715400
v 4.823600 0.780400 1.060200
v 4.823600 0.780400 -1.060200
v 4.525501 -0.780400 1.977601
v 4.927301 -0.849700 0.000000
v 4.525498 -0.780400 -1.977599
v 3.618000 -2.236100 2.628700
v 4.181000 -2.584000 0.917400
v 4.181001 -2.584000 -0.917399
v 3.617999 -2.236100 -2.628701
v 2.498800 0.780400 -4.259900
v 0.482300 0.780400 -4.915100
v 3.279199 -0.780400 -3.692899
v 1.522600 -0.849700 -4.686100
v -0.482300 -0.780400 -4.915100
v 2.164500 -2.584000 -3.692899
v 0.419500 -2.584000 -4.259900
v -1.382000 -2.236100 -4.253300
v -3.279200 0.780400 -3.692900
v -4.525500 0.780400 -1.977600
v -2.498800 -0.780400 -4.259900
v -3.986300 -0.849700 -2.896200
v -4.823600 -0.780400 -1.060200
v -2.843300 -2.584000 -3.199700
v -3.921800 -2.584000 -1.715400
v -4.472100 -2.236100 0.000000
v -4.525500 0.780400 1.977600
v -3.279198 0.780400 3.692900
v -4.823600 -0.780400 1.060200
v -3.986300 -0.849700 2.896200
v -2.498800 -0.780400 4.259900
v -3.921800 -2.584000 1.715400
v -2.843300 -2.584000 3.199700
v -1.382000 -2.236100 4.253300
v 0.482300 0.780400 4.915102
v 2.498799 0.780400 4.259898
v -0.482300 -0.780400 4.915100
v 1.522600 -0.849700 4.686100
v 3.279201 -0.780400 3.692900
v 0.419500 -2.584000 4.259900
v 2.164500 -2.584000 3.692900
v 3.986300 0.849700 -2.896200
v -1.522600 0.849700 -4.686100
v -4.927300 0.849700 0.000000
v -1.522599 0.849700 4.686101
v 3.986299 0.849700 2.896199
v 0.000000 -5.000000 0.000000
v -0.557400 -4.663400 -1.715400
v 1.459200 -4.663400 -1.060200
v -1.039700 -3.698700 -3.199700
v 0.915800 -4.027100 -2.818500
v 2.721900 -3.698700 -1.977600
v -1.803600 -4.663400 0.000000
v -3.364400 -3.698700 0.000000
v -2.397500 -4.027100 -1.741900
v -0.557400 -4.663400 1.715400
v -1.039700 -3.698700 3.199700
v -2.397500 -4.027100 1.741900
v 1.459200 -4.663400 1.060200
v 2.721900 -3.698700 1.977600
v 0.915800 -4.027100 2.818500
v 2.963500 -4.027100 0.000000
vn 0.000004 1.000000 0.000000
vn 0.348500 0.937309 -0.000000
vn 0.107703 0.937308 -0.331442
vn 0.678527 0.734576 0.000000
vn 0.487314 0.798228 -0.354059
vn 0.348500 0.937309 -0.000000
vn 0.209691 0.734572 -0.645317
vn 0.894421 0.447227 0.000000
vn 0.787846 0.516053 -0.336136
vn 0.487314 0.798228 -0.354059
vn 0.487314 0.798228 -0.354058
vn 0.787846 0.516053 -0.336136
vn 0.563144 0.516050 -0.645415
vn 0.487314 0.798228 -0.354058
vn 0.209691 0.734572 -0.645317
vn 0.563144 0.516050 -0.645415
vn 0.276401 0.447224 -0.850643
vn 0.107703 0.937308 -0.331442
vn -0.281939 0.937311 -0.204838
vn 0.209691 0.734572 -0.645317
vn -0.186131 0.798221 -0.572886
vn -0.281939 0.937311 -0.204838
vn -0.186131 0.798221 -0.572886
vn -0.548954 0.734562 -0.398834
vn 0.209691 0.734572 -0.645317
vn -0.076236 0.516039 -0.853166
vn 0.209691 0.734572 -0.645317
vn -0.439806 0.516029 -0.735041
vn -0.186131 0.798221 -0.572885
vn -0.439806 0.516029 -0.735041
vn -0.723602 0.447215 -0.525736
vn -0.281939 0.937311 0.204838
vn -0.281939 0.937311 -0.204838
vn -0.602366 0.798220 0.000000
vn -0.548954 0.734562 0.398833
vn -0.548954 0.734562 -0.398834
vn -0.834964 0.516044 -0.191137
vn -0.602366 0.798220 0.000000
vn -0.834964 0.516044 0.191137
vn -0.548954 0.734562 0.398834
vn -0.723602 0.447215 0.525736
vn 0.000004 1.000000 0.000000
vn 0.107703 0.937308 0.331442
vn -0.281939 0.937311 0.204838
vn -0.186131 0.798221 0.572885
vn -0.281939 0.937311 0.204838
vn 0.209691 0.734572 0.645317
vn -0.439806 0.516028 0.735041
vn -0.186131 0.798221 0.572886
vn -0.076236 0.516040 0.853165
vn -0.186131 0.798221 0.572886
vn 0.276401 0.447224 0.850643
vn 0.000004 1.000000 0.000000
vn 0.209691 0.734572 0.645317
vn 0.487314 0.798228 0.354059
vn 0.348500 0.937309 0.000000
vn 0.487314 0.798228 0.354059
vn 0.209691 0.734572 0.645317
vn 0.563145 0.516049 0.645416
vn 0.487314 0.798228 0.354059
vn 0.563145 0.516049 0.645416
vn 0.787846 0.516053 0.336136
vn 0.487314 0.798228 0.354059
vn 0.678527 0.734576 0.000000
vn 0.678527 0.734576 0.000000
vn 0.894421 0.447227 0.000000
vn 0.964051 0.165675 0.207746
vn 0.964051 0.165675 -0.207746
vn 0.902041 -0.165688 0.398584
vn 0.983338 -0.181784 -0.000000
vn 0.964051 0.165675 0.207746
vn 0.902041 -0.165688 -0.398584
vn 0.723602 -0.447216 0.525736
vn 0.834964 -0.516045 0.191137
vn 0.983338 -0.181784 -0.000000
vn 0.983338 -0.181784 -0.000000
vn 0.834964 -0.516045 0.191137
vn 0.834964 -0.516044 -0.191138
vn 0.983338 -0.181784 -0.000000
vn 0.723602 -0.447215 -0.525737
vn 0.495492 0.165660 -0.852669
vn 0.100317 0.165659 -0.981068
vn 0.657805 -0.165678 -0.734740
vn 0.303873 -0.181769 -0.935212
vn -0.100317 -0.165659 -0.981068
vn 0.439806 -0.516028 -0.735041
vn 0.303873 -0.181769 -0.935212
vn 0.439806 -0.516028 -0.735041
vn 0.076236 -0.516039 -0.853166
vn -0.276401 -0.447224 -0.850643
vn -0.657805 0.165678 -0.734741
vn -0.902041 0.165688 -0.398584
vn -0.495492 -0.165660 -0.852669
vn -0.795530 -0.181764 -0.578009
vn -0.964051 -0.165675 -0.207745
vn -0.563144 -0.516050 -0.645415
vn -0.563144 -0.516050 -0.645415
vn -0.787846 -0.516053 -0.336136
vn -0.795530 -0.181764 -0.578009
vn -0.894421 -0.447227 0.000000
vn -0.723602 0.447215 0.525737
vn -0.902041 0.165688 0.398584
vn -0.657805 0.165678 0.734741
vn -0.964051 -0.165675 0.207745
vn -0.795530 -0.181764 0.578009
vn -0.495492 -0.165660 0.852669
vn -0.787846 -0.516053 0.336136
vn -0.563144 -0.516050 0.645415
vn -0.495492 -0.165660 0.852669
vn -0.276401 -0.447224 0.850643
vn 0.100317 0.165659 0.981068
vn 0.495492 0.165660 0.852669
vn -0.100317 -0.165659 0.981068
vn 0.303872 -0.181769 0.935212
vn 0.100317 0.165659 0.981068
vn 0.657805 -0.165678 0.734741
vn 0.076236 -0.516039 0.853166
vn 0.439806 -0.516029 0.735041
vn 0.303872 -0.181769 0.935212
vn 0.657805 -0.165678 -0.734740
vn 0.902041 -0.165688 -0.398584
vn 0.795530 0.181764 -0.578009
vn 0.657805 -0.165678 -0.734740
vn 0.495492 0.165660 -0.852669
vn 0.563144 0.516050 -0.645415
vn 0.563144 0.516050 -0.645415
vn 0.795530 0.181764 -0.578009
vn -0.303872 0.181769 -0.935212
vn -0.100317 -0.165659 -0.981068
vn -0.303872 0.181769 -0.935212
vn -0.439806 0.516029 -0.735041
vn -0.303872 0.181769 -0.935212
vn 0.276401 0.447224 -0.850643
vn -0.964051 -0.165675 0.207745
vn -0.964051 -0.165675 0.207745
vn -0.983338 0.181784 -0.000000
vn -0.964051 -0.165675 -0.207745
vn -0.964051 -0.165675 -0.207745
vn -0.902041 0.165688 0.398584
vn -0.983338 0.181784 -0.000000
vn -0.834964 0.516044 -0.191137
vn -0.902041 0.165688 -0.398584
vn -0.834964 0.516044 -0.191137
vn -0.276401 -0.447224 0.850643
vn -0.100317 -0.165659 0.981068
vn 0.100317 0.165659 0.981068
vn -0.303873 0.181769 0.935212
vn -0.495492 -0.165660 0.852669
vn -0.076236 0.516040 0.853165
vn -0.076236 0.516040 0.853165
vn -0.303873 0.181769 0.935212
vn -0.303873 0.181769 0.935212
vn -0.439806 0.516029 0.735041
vn -0.657805 0.165678 0.734741
vn -0.657805 0.165678 0.734741
vn -0.439806 0.516029 0.735041
vn -0.723602 0.447215 0.525736
vn 0.723602 -0.447216 0.525736
vn 0.657805 -0.165678 0.734741
vn 0.902041 -0.165688 0.398584
vn 0.795530 0.181765 0.578009
vn 0.902041 -0.165688 0.398584
vn 0.964051 0.165675 0.207746
vn 0.964051 0.165675 0.207746
vn 0.787846 0.516053 0.336136
vn 0.787846 0.516053 0.336136
vn 0.563145 0.516049 0.645416
vn 0.795530 0.181765 0.578009
vn 0.563145 0.516049 0.645416
vn 0.495492 0.165660 0.852669
vn 0.495492 0.165660 0.852669
vn -0.000004 -1.000000 0.000000
vn -0.107703 -0.937308 -0.331442
vn 0.281939 -0.937311 -0.204838
vn -0.209691 -0.734572 -0.645317
vn 0.186131 -0.798221 -0.572886
vn 0.281939 -0.937311 -0.204838
vn 0.548954 -0.734562 -0.398834
vn -0.209691 -0.734572 -0.645317
vn 0.076236 -0.516039 -0.853166
vn 0.439806 -0.516028 -0.735041
vn 0.186131 -0.798221 -0.572886
vn -0.348500 -0.937309 -0.000000
vn -0.107703 -0.937308 -0.331442
vn -0.678527 -0.734576 0.000000
vn -0.487314 -0.798228 -0.354059
vn -0.348500 -0.937309 -0.000000
vn -0.894421 -0.447227 0.000000
vn -0.787846 -0.516053 -0.336136
vn -0.787846 -0.516053 -0.336136
vn -0.487314 -0.798228 -0.354059
vn -0.487314 -0.798228 -0.354058
vn -0.487314 -0.798228 -0.354058
vn -0.563144 -0.516050 -0.645415
vn -0.563144 -0.516050 -0.645415
vn -0.276401 -0.447224 -0.850643
vn -0.000004 -1.000000 0.000000
vn -0.107703 -0.937308 0.331442
vn -0.209691 -0.734572 0.645317
vn -0.487314 -0.798228 0.354059
vn -0.107703 -0.937308 0.331442
vn -0.348500 -0.937309 0.000000
vn -0.487314 -0.798228 0.354059
vn -0.563144 -0.516050 0.645415
vn -0.487314 -0.798228 0.354059
vn -0.487314 -0.798228 0.354059
vn -0.678527 -0.734576 0.000000
vn -0.678527 -0.734576 0.000000
vn -0.787846 -0.516053 0.336136
vn -0.000004 -1.000000 0.000000
vn 0.281939 -0.937311 0.204838
vn 0.548954 -0.734562 0.398834
vn 0.186131 -0.798221 0.572885
vn -0.209691 -0.734572 0.645317
vn 0.723602 -0.447216 0.525736
vn 0.439806 -0.516029 0.735041
vn 0.186131 -0.798221 0.572886
vn 0.186131 -0.798221 0.572886
vn 0.076236 -0.516039 0.853166
vn -0.209691 -0.734572 0.645317
vn 0.076236 -0.516039 0.853166
vn -0.000004 -1.000000 0.000000
vn 0.281939 -0.937311 0.204838
vn 0.281939 -0.937311 -0.204838
vn 0.548954 -0.734562 -0.398834
vn 0.602366 -0.798220 0.000000
vn 0.281939 -0.937311 0.204838
vn 0.548954 -0.734562 0.398834
vn 0.548954 -0.734562 -0.398834
vn 0.548954 -0.734562 -0.398834
vn 0.602366 -0.798220 0.000000
vn 0.834964 -0.516045 0.191137
vt 0.000000 0.000000
f 1/1/1 2/1/2 3/1/3
f 2/1/2 4/1/4 5/1/5
f 2/1/6 5/1/5 3/1/3
f 3/1/3 5/1/5 6/1/7
f 4/1/4 7/1/8 8/1/9
f 4/1/4 8/1/9 5/1/10
f 5/1/11 8/1/12 9/1/13
f 5/1/14 9/1/13 6/1/7
f 6/1/15 9/1/16 10/1/17
f 1/1/1 3/1/18 11/1/19
f 3/1/3 6/1/20 12/1/21
f 3/1/18 12/1/21 11/1/19
f 11/1/22 12/1/23 13/1/24
f 6/1/25 10/1/17 14/1/26
f 6/1/27 14/1/26 12/1/21
f 12/1/21 14/1/26 15/1/28
f 12/1/29 15/1/28 13/1/24
f 13/1/24 15/1/30 16/1/31
f 1/1/1 11/1/22 17/1/32
f 11/1/33 13/1/24 18/1/34
f 11/1/19 18/1/34 17/1/32
f 17/1/32 18/1/34 19/1/35
f 13/1/36 16/1/31 20/1/37
f 13/1/24 20/1/37 18/1/38
f 18/1/34 20/1/37 21/1/39
f 18/1/34 21/1/39 19/1/35
f 19/1/40 21/1/39 22/1/41
f 1/1/42 17/1/32 23/1/43
f 17/1/44 19/1/40 24/1/45
f 17/1/46 24/1/45 23/1/43
f 23/1/43 24/1/45 25/1/47
f 19/1/35 22/1/41 26/1/48
f 19/1/35 26/1/48 24/1/45
f 24/1/49 26/1/48 27/1/50
f 24/1/51 27/1/50 25/1/47
f 25/1/47 27/1/50 28/1/52
f 1/1/53 23/1/43 2/1/6
f 23/1/43 25/1/54 29/1/55
f 23/1/43 29/1/55 2/1/56
f 2/1/2 29/1/57 4/1/4
f 25/1/58 28/1/52 30/1/59
f 25/1/58 30/1/59 29/1/60
f 29/1/60 30/1/61 31/1/62
f 29/1/63 31/1/62 4/1/64
f 4/1/65 31/1/62 7/1/8
f 7/1/66 32/1/67 33/1/68
f 32/1/67 34/1/69 35/1/70
f 32/1/71 35/1/70 33/1/68
f 33/1/68 35/1/70 36/1/72
f 34/1/69 37/1/73 38/1/74
f 34/1/69 38/1/74 35/1/75
f 35/1/76 38/1/77 39/1/78
f 35/1/79 39/1/78 36/1/72
f 36/1/72 39/1/78 40/1/80
f 10/1/17 41/1/81 42/1/82
f 41/1/81 43/1/83 44/1/84
f 41/1/81 44/1/84 42/1/82
f 42/1/82 44/1/84 45/1/85
f 43/1/83 40/1/80 46/1/86
f 43/1/83 46/1/86 44/1/84
f 44/1/87 46/1/88 47/1/89
f 44/1/84 47/1/89 45/1/85
f 45/1/85 47/1/89 48/1/90
f 16/1/31 49/1/91 50/1/92
f 49/1/91 51/1/93 52/1/94
f 49/1/91 52/1/94 50/1/92
f 50/1/92 52/1/94 53/1/95
f 51/1/93 48/1/90 54/1/96
f 51/1/93 54/1/96 52/1/94
f 52/1/94 54/1/97 55/1/98
f 52/1/99 55/1/98 53/1/95
f 53/1/95 55/1/98 56/1/100
f 22/1/101 57/1/102 58/1/103
f 57/1/102 59/1/104 60/1/105
f 57/1/102 60/1/105 58/1/103
f 58/1/103 60/1/105 61/1/106
f 59/1/104 56/1/100 62/1/107
f 59/1/104 62/1/107 60/1/105
f 60/1/105 62/1/107 63/1/108
f 60/1/105 63/1/108 61/1/106
f 61/1/109 63/1/108 64/1/110
f 28/1/52 65/1/111 66/1/112
f 65/1/111 67/1/113 68/1/114
f 65/1/115 68/1/114 66/1/112
f 66/1/112 68/1/114 69/1/116
f 67/1/113 64/1/110 70/1/117
f 67/1/113 70/1/117 68/1/114
f 68/1/114 70/1/117 71/1/118
f 68/1/119 71/1/118 69/1/116
f 69/1/116 71/1/118 37/1/73
f 40/1/80 43/1/120 36/1/121
f 43/1/83 41/1/81 72/1/122
f 43/1/123 72/1/122 36/1/121
f 36/1/121 72/1/122 33/1/68
f 41/1/81 10/1/17 9/1/16
f 41/1/124 9/1/125 72/1/122
f 72/1/122 9/1/126 8/1/12
f 72/1/127 8/1/9 33/1/68
f 33/1/68 8/1/9 7/1/8
f 48/1/90 51/1/93 45/1/85
f 51/1/93 49/1/91 73/1/128
f 51/1/93 73/1/128 45/1/85
f 45/1/129 73/1/130 42/1/82
f 49/1/91 16/1/31 15/1/28
f 49/1/91 15/1/131 73/1/132
f 73/1/132 15/1/28 14/1/26
f 73/1/132 14/1/26 42/1/82
f 42/1/82 14/1/26 10/1/133
f 56/1/100 59/1/134 53/1/95
f 59/1/135 57/1/102 74/1/136
f 59/1/104 74/1/136 53/1/137
f 53/1/138 74/1/136 50/1/92
f 57/1/102 22/1/41 21/1/39
f 57/1/139 21/1/39 74/1/140
f 74/1/140 21/1/39 20/1/37
f 74/1/140 20/1/141 50/1/92
f 50/1/142 20/1/143 16/1/31
f 64/1/144 67/1/145 61/1/109
f 67/1/145 65/1/146 75/1/147
f 67/1/145 75/1/147 61/1/109
f 61/1/148 75/1/147 58/1/103
f 65/1/146 28/1/52 27/1/149
f 65/1/115 27/1/150 75/1/147
f 75/1/151 27/1/50 26/1/48
f 75/1/152 26/1/153 58/1/154
f 58/1/155 26/1/156 22/1/157
f 37/1/158 34/1/69 69/1/159
f 34/1/160 32/1/71 76/1/161
f 34/1/162 76/1/161 69/1/159
f 69/1/159 76/1/161 66/1/112
f 32/1/163 7/1/8 31/1/62
f 32/1/164 31/1/165 76/1/161
f 76/1/161 31/1/166 30/1/167
f 76/1/168 30/1/169 66/1/170
f 66/1/171 30/1/59 28/1/52
f 77/1/172 78/1/173 79/1/174
f 78/1/173 80/1/175 81/1/176
f 78/1/173 81/1/176 79/1/174
f 79/1/177 81/1/176 82/1/178
f 80/1/175 48/1/90 47/1/89
f 80/1/179 47/1/89 81/1/176
f 81/1/176 47/1/180 46/1/181
f 81/1/182 46/1/86 82/1/178
f 82/1/178 46/1/88 40/1/80
f 77/1/172 83/1/183 78/1/184
f 83/1/183 84/1/185 85/1/186
f 83/1/187 85/1/186 78/1/173
f 78/1/184 85/1/186 80/1/175
f 84/1/185 56/1/188 55/1/189
f 84/1/185 55/1/190 85/1/191
f 85/1/192 55/1/190 54/1/97
f 85/1/193 54/1/194 80/1/179
f 80/1/179 54/1/195 48/1/196
f 77/1/197 86/1/198 83/1/187
f 86/1/198 87/1/199 88/1/200
f 86/1/201 88/1/200 83/1/202
f 83/1/183 88/1/203 84/1/185
f 87/1/199 64/1/144 63/1/204
f 87/1/199 63/1/204 88/1/205
f 88/1/205 63/1/204 62/1/107
f 88/1/206 62/1/107 84/1/207
f 84/1/208 62/1/209 56/1/188
f 77/1/210 89/1/211 86/1/201
f 89/1/211 90/1/212 91/1/213
f 89/1/211 91/1/213 86/1/201
f 86/1/201 91/1/213 87/1/214
f 90/1/212 37/1/215 71/1/216
f 90/1/212 71/1/118 91/1/213
f 91/1/217 71/1/118 70/1/117
f 91/1/218 70/1/219 87/1/199
f 87/1/220 70/1/221 64/1/110
f 77/1/222 79/1/177 89/1/223
f 79/1/224 82/1/225 92/1/226
f 79/1/174 92/1/226 89/1/211
f 89/1/227 92/1/226 90/1/228
f 82/1/229 40/1/80 39/1/78
f 82/1/230 39/1/78 92/1/231
f 92/1/231 39/1/78 38/1/74
f 92/1/231 38/1/77 90/1/228
f 90/1/212 38/1/232 37/1/215
